<svg width="35" height="35" viewBox="0 0 35 35" fill="none" xmlns="http://www.w3.org/2000/svg">
<g clip-path="url(#clip0_328_41)">
<path d="M17.5 35C27.165 35 35 27.165 35 17.5C35 7.83502 27.165 0 17.5 0C7.83502 0 0 7.83502 0 17.5C0 27.165 7.83502 35 17.5 35Z" fill="#F9F9F9"/>
<mask id="mask0_328_41" style="mask-type:luminance" maskUnits="userSpaceOnUse" x="0" y="0" width="35" height="35">
<path d="M35 0H0V35H35V0Z" fill="white"/>
</mask>
<g mask="url(#mask0_328_41)">
<path d="M17.5 35C7.85057 35 0 27.1502 0 17.5004C0 7.85057 7.85057 0 17.5 0C27.1498 0 35 7.85057 35 17.5004C35 27.1502 27.1502 35 17.5 35ZM17.5 1.22354C8.52505 1.22354 1.22354 8.52542 1.22354 17.5004C1.22354 26.4753 8.52505 33.7765 17.5 33.7765C26.4746 33.7765 33.7765 26.4753 33.7765 17.5004C33.7765 8.52542 26.4746 1.22354 17.5 1.22354Z" fill="#FFBD59"/>
<mask id="mask1_328_41" style="mask-type:luminance" maskUnits="userSpaceOnUse" x="2" y="2" width="31" height="31">
<path d="M2.05566 2.05566H32.9257V32.9257H2.05566V2.05566Z" fill="white"/>
</mask>
<g mask="url(#mask1_328_41)">
<path d="M17.4826 2.05566C8.95504 2.05566 2.05566 8.9627 2.05566 17.4907C2.05566 26.0183 8.95504 32.9257 17.4826 32.9257C26.0106 32.9257 32.9257 26.0183 32.9257 17.4907C32.9257 8.9627 26.0106 2.05566 17.4826 2.05566ZM24.0196 26.7514L17.4907 22.8158L10.9617 26.7514L12.6902 19.3274L6.93306 14.3341L14.527 13.6859L17.4907 6.68587L20.454 13.6859L28.0479 14.3341L22.2908 19.3274L24.0196 26.7514Z" fill="#FFBD59"/>
</g>
</g>
</g>
<defs>
<clipPath id="clip0_328_41">
<rect width="35" height="35" fill="white"/>
</clipPath>
</defs>
</svg>
