<svg width="35" height="35" viewBox="0 0 35 35" fill="none" xmlns="http://www.w3.org/2000/svg">
<g clip-path="url(#clip0_328_55)">
<path d="M17.5 35C27.165 35 35 27.165 35 17.5C35 7.83502 27.165 0 17.5 0C7.83502 0 0 7.83502 0 17.5C0 27.165 7.83502 35 17.5 35Z" fill="#F9F9F9"/>
<mask id="mask0_328_55" style="mask-type:luminance" maskUnits="userSpaceOnUse" x="0" y="0" width="35" height="35">
<path d="M35 0H0V35H35V0Z" fill="white"/>
</mask>
<g mask="url(#mask0_328_55)">
<path d="M17.5 35C7.85057 35 0 27.1502 0 17.5004C0 7.85057 7.85057 0 17.5 0C27.1498 0 35 7.85057 35 17.5004C35 27.1502 27.1502 35 17.5 35ZM17.5 1.22354C8.52505 1.22354 1.22354 8.52542 1.22354 17.5004C1.22354 26.4753 8.52505 33.7765 17.5 33.7765C26.4746 33.7765 33.7765 26.4753 33.7765 17.5004C33.7765 8.52542 26.4746 1.22354 17.5 1.22354Z" fill="#6E1E78"/>
<mask id="mask1_328_55" style="mask-type:luminance" maskUnits="userSpaceOnUse" x="2" y="2" width="31" height="31">
<path d="M2.05566 2.05566H32.9257V32.9257H2.05566V2.05566Z" fill="white"/>
</mask>
<g mask="url(#mask1_328_55)">
<path d="M17.4907 2.05566C17.238 2.05566 16.9854 2.06186 16.7331 2.07426C16.4808 2.08665 16.2292 2.10525 15.9776 2.12967C15.7261 2.15447 15.4756 2.18546 15.2259 2.22264C14.9758 2.25983 14.7271 2.30285 14.4792 2.35207C14.2317 2.40129 13.9852 2.45671 13.7402 2.51796C13.4952 2.57957 13.2517 2.64665 13.0099 2.7203C12.7682 2.79358 12.5283 2.8727 12.2906 2.95764C12.0529 3.04296 11.817 3.13374 11.5837 3.23035C11.3504 3.32697 11.1196 3.42941 10.8913 3.53733C10.6627 3.64561 10.4374 3.759 10.2147 3.87822C9.99191 3.99707 9.77207 4.12176 9.55551 4.25155C9.33858 4.38134 9.1253 4.5166 8.9153 4.65697C8.7053 4.79697 8.49895 4.94243 8.29587 5.09301C8.09316 5.24358 7.8941 5.39889 7.69868 5.55895C7.50327 5.71936 7.31223 5.88415 7.1252 6.05405C6.9378 6.22358 6.75478 6.39785 6.5765 6.5765C6.39785 6.75478 6.22358 6.9378 6.05405 7.1252C5.88415 7.31223 5.71936 7.50327 5.55895 7.69868C5.39889 7.8941 5.24358 8.09316 5.09301 8.29587C4.94243 8.49895 4.79697 8.7053 4.65697 8.9153C4.5166 9.1253 4.38134 9.33858 4.25155 9.55551C4.12176 9.77207 3.99707 9.99191 3.87822 10.2147C3.759 10.4374 3.64561 10.6627 3.53733 10.8913C3.42941 11.1196 3.32697 11.3504 3.23035 11.5837C3.13374 11.817 3.04296 12.0529 2.95764 12.2906C2.8727 12.5283 2.79358 12.7682 2.7203 13.0099C2.64665 13.2517 2.57957 13.4952 2.51796 13.7402C2.45671 13.9852 2.40129 14.2317 2.35207 14.4792C2.30285 14.7271 2.25983 14.9758 2.22264 15.2259C2.18546 15.4756 2.15447 15.7261 2.12967 15.9776C2.10525 16.2292 2.08665 16.4808 2.07426 16.7331C2.06186 16.9854 2.05566 17.238 2.05566 17.4907C2.05566 17.743 2.06186 17.9956 2.07426 18.2479C2.08665 18.5002 2.10525 18.7521 2.12967 19.0033C2.15447 19.2549 2.18546 19.5054 2.22264 19.7555C2.25983 20.0052 2.30285 20.2538 2.35207 20.5018C2.40129 20.7497 2.45671 20.9958 2.51796 21.2408C2.57957 21.4861 2.64665 21.7293 2.7203 21.971C2.79358 22.2127 2.8727 22.4526 2.95764 22.6904C3.04296 22.9284 3.13374 23.1639 3.23035 23.3973C3.32697 23.6306 3.42941 23.8614 3.53733 24.09C3.64561 24.3182 3.759 24.5439 3.87822 24.7667C3.99707 24.9894 4.12176 25.2089 4.25155 25.4258C4.38134 25.6424 4.5166 25.8557 4.65697 26.0657C4.79697 26.2757 4.94243 26.4824 5.09301 26.6851C5.24358 26.8882 5.39889 27.0872 5.55895 27.2823C5.71936 27.4777 5.88415 27.6687 6.05405 27.8561C6.22358 28.0432 6.39785 28.2262 6.5765 28.4048C6.75478 28.5835 6.9378 28.7574 7.1252 28.9273C7.31223 29.0968 7.50327 29.2616 7.69868 29.422C7.8941 29.5821 8.09316 29.7374 8.29587 29.888C8.49895 30.0385 8.7053 30.184 8.9153 30.3244C9.1253 30.4647 9.33858 30.5996 9.55551 30.7294C9.77207 30.8596 9.99191 30.9839 10.2147 31.1031C10.4374 31.222 10.6627 31.3357 10.8913 31.4436C11.1196 31.5515 11.3504 31.654 11.5837 31.7506C11.817 31.8472 12.0529 31.938 12.2906 32.0233C12.5283 32.1083 12.7682 32.1877 13.0099 32.261C13.2517 32.3343 13.4952 32.4018 13.7402 32.463C13.9852 32.5243 14.2317 32.5797 14.4792 32.6289C14.7271 32.6781 14.9758 32.7215 15.2259 32.7583C15.4756 32.7955 15.7261 32.8265 15.9776 32.8513C16.2292 32.8761 16.4808 32.8947 16.7331 32.9071C16.9854 32.9195 17.238 32.9257 17.4907 32.9257C17.743 32.9257 17.9956 32.9195 18.2479 32.9071C18.5002 32.8947 18.7521 32.8761 19.0033 32.8513C19.2549 32.8265 19.5054 32.7955 19.7555 32.7583C20.0052 32.7215 20.2538 32.6781 20.5018 32.6289C20.7497 32.5797 20.9958 32.5243 21.2408 32.463C21.4861 32.4018 21.7293 32.3343 21.971 32.261C22.2127 32.1877 22.4526 32.1083 22.6904 32.0233C22.9284 31.938 23.1639 31.8472 23.3973 31.7506C23.6306 31.654 23.8614 31.5515 24.09 31.4436C24.3182 31.3357 24.5439 31.222 24.7667 31.1031C24.9894 30.9839 25.2089 30.8596 25.4258 30.7294C25.6424 30.5996 25.8557 30.4647 26.0657 30.3244C26.2757 30.184 26.4824 30.0385 26.6851 29.888C26.8882 29.7374 27.0872 29.5821 27.2823 29.422C27.4777 29.2616 27.6687 29.0968 27.8561 28.9273C28.0432 28.7574 28.2262 28.5835 28.4048 28.4048C28.5835 28.2262 28.7574 28.0432 28.9273 27.8561C29.0968 27.6687 29.2616 27.4777 29.422 27.2823C29.5821 27.0872 29.7374 26.8882 29.888 26.6851C30.0385 26.4824 30.184 26.2757 30.3244 26.0657C30.4647 25.8557 30.5996 25.6424 30.7294 25.4258C30.8596 25.2089 30.9839 24.9894 31.1031 24.7667C31.222 24.5439 31.3357 24.3182 31.4436 24.09C31.5515 23.8614 31.654 23.6306 31.7506 23.3973C31.8472 23.1639 31.938 22.9284 32.0233 22.6904C32.1083 22.4526 32.1877 22.2127 32.261 21.971C32.3343 21.7293 32.4018 21.4861 32.463 21.2408C32.5243 20.9958 32.5797 20.7497 32.6289 20.5018C32.6781 20.2538 32.7215 20.0052 32.7583 19.7555C32.7955 19.5054 32.8265 19.2549 32.8513 19.0033C32.8761 18.7521 32.8947 18.5002 32.9071 18.2479C32.9195 17.9956 32.9257 17.743 32.9257 17.4907C32.9257 17.238 32.9191 16.9854 32.9067 16.7331C32.8943 16.4808 32.8757 16.2292 32.8509 15.9776C32.8261 15.7264 32.7951 15.4756 32.7583 15.2259C32.7211 14.9761 32.6781 14.7271 32.6285 14.4796C32.5793 14.2317 32.5239 13.9852 32.4626 13.7402C32.401 13.4952 32.3339 13.252 32.2603 13.0103C32.187 12.7686 32.1079 12.5287 32.023 12.291C31.9376 12.0529 31.8469 11.8174 31.7502 11.584C31.6533 11.3507 31.5512 11.1199 31.4429 10.8917C31.335 10.6631 31.2216 10.4378 31.1024 10.215C30.9832 9.99228 30.8588 9.77243 30.729 9.55587C30.5993 9.33895 30.464 9.12566 30.3236 8.91566C30.1833 8.70566 30.0378 8.49931 29.8876 8.29624C29.737 8.09353 29.5817 7.89447 29.4213 7.69905C29.2612 7.504 29.0961 7.31259 28.9265 7.12556C28.757 6.93853 28.5827 6.75551 28.4041 6.57686C28.2255 6.39822 28.0428 6.22431 27.8554 6.05441C27.6684 5.88488 27.477 5.72009 27.2819 5.55967C27.0865 5.39962 26.8874 5.24395 26.6847 5.09374C26.4817 4.94316 26.2753 4.7977 26.0653 4.65733C25.8553 4.51697 25.642 4.38207 25.4255 4.25191C25.2085 4.12212 24.989 3.9978 24.7663 3.87858C24.5435 3.75973 24.3179 3.64598 24.0896 3.53806C23.861 3.43014 23.6302 3.3277 23.3969 3.23108C23.1636 3.13447 22.9281 3.04332 22.69 2.95837C22.4523 2.87306 22.2127 2.79395 21.971 2.72066C21.7293 2.64738 21.4858 2.57993 21.2408 2.51832C20.9958 2.45707 20.7493 2.40165 20.5018 2.35243C20.2538 2.30322 20.0052 2.25983 19.7551 2.22301C19.5054 2.18582 19.2549 2.15483 19.0033 2.13004C18.7521 2.10525 18.5002 2.08665 18.2479 2.07426C17.9956 2.06186 17.743 2.05566 17.4907 2.05566ZM17.4907 7.84379C17.5818 7.84379 17.673 7.84634 17.7641 7.85145C17.8552 7.85655 17.9464 7.86457 18.0372 7.87514C18.1276 7.88535 18.218 7.89848 18.3081 7.91452C18.3981 7.9302 18.4874 7.94842 18.5764 7.96921C18.6654 7.99035 18.7532 8.01368 18.8411 8.03957C18.9286 8.06546 19.015 8.09426 19.101 8.12525C19.1871 8.15624 19.272 8.18978 19.3559 8.22551C19.4397 8.2616 19.5225 8.29988 19.6042 8.34072C19.6862 8.38118 19.7664 8.42421 19.8459 8.46978C19.925 8.51499 20.003 8.56275 20.0792 8.6127C20.1558 8.66264 20.2309 8.71441 20.3042 8.76874C20.3778 8.82306 20.4496 8.87921 20.5196 8.93754C20.59 8.99624 20.6585 9.05639 20.7252 9.11874C20.792 9.18108 20.8569 9.24525 20.9196 9.3116C20.9826 9.37759 21.0439 9.4454 21.103 9.51504C21.162 9.58467 21.2189 9.65613 21.2739 9.72905C21.329 9.80197 21.3815 9.87634 21.4322 9.95217C21.4829 10.0284 21.5313 10.1057 21.5776 10.1844C21.6236 10.2632 21.6677 10.3434 21.7089 10.4247C21.7505 10.506 21.7898 10.5884 21.8267 10.6719C21.8631 10.7554 21.8974 10.8399 21.9295 10.9256C21.9612 11.0113 21.9907 11.0977 22.0177 11.1848C22.0443 11.2723 22.0687 11.3602 22.0906 11.4488C22.1121 11.5374 22.1314 11.6267 22.1482 11.7164C22.1646 11.8064 22.1788 11.8965 22.1901 11.9873C22.2014 12.0777 22.2102 12.1685 22.2164 12.2596C22.2226 12.3508 22.2259 12.4419 22.227 12.5334C22.2277 12.6246 22.2259 12.7157 22.2215 12.8072C22.2171 12.8984 22.2102 12.9892 22.2004 13.0799C22.1905 13.1707 22.1785 13.2615 22.1635 13.3515C22.1486 13.4416 22.1311 13.5309 22.111 13.6202C22.091 13.7092 22.068 13.7978 22.0429 13.8853C22.0177 13.9732 21.99 14.0603 21.9597 14.1463C21.9295 14.2324 21.8967 14.3177 21.8617 14.4019C21.8263 14.4861 21.7887 14.5693 21.749 14.6513C21.7089 14.7337 21.6666 14.8143 21.6218 14.8941C21.5773 14.9736 21.5302 15.052 21.481 15.1289C21.4318 15.2058 21.3804 15.2813 21.3268 15.3553C21.2732 15.4289 21.2174 15.5015 21.1598 15.5722C21.1022 15.643 21.0424 15.7119 20.9805 15.7793C20.9188 15.8464 20.855 15.912 20.7898 15.9755C20.7242 16.0389 20.6567 16.1009 20.5878 16.1603C20.5185 16.2201 20.4478 16.2777 20.3756 16.3335C20.3031 16.3889 20.229 16.4425 20.1536 16.4935C20.0781 16.5449 20.0012 16.5942 19.9228 16.6408C19.8444 16.6879 19.7646 16.7323 19.6836 16.7746C19.6027 16.8169 19.5207 16.8567 19.4375 16.8942C19.354 16.9318 19.2698 16.9668 19.1845 16.9996C19.0992 17.032 19.0132 17.0623 18.926 17.09C18.8389 17.1177 18.7514 17.1425 18.6628 17.1651C18.5742 17.1877 18.4852 17.2077 18.3956 17.2252C18.3059 17.2427 18.2158 17.2573 18.1254 17.2697C18.035 17.2818 17.9442 17.2912 17.8531 17.2982C17.7619 17.3055 17.6708 17.3095 17.5796 17.3113C17.4885 17.3131 17.397 17.312 17.3058 17.3084C17.2147 17.3047 17.1235 17.2985 17.0327 17.2898C16.9416 17.2807 16.8512 17.2694 16.7611 17.2551C16.6707 17.2409 16.581 17.2242 16.4917 17.2048C16.4024 17.1859 16.3138 17.164 16.2259 17.1392C16.1381 17.1148 16.0509 17.0882 15.9642 17.0586C15.8777 17.0291 15.7924 16.997 15.7079 16.9627C15.6233 16.9281 15.5398 16.8913 15.4574 16.8523C15.375 16.8129 15.2937 16.7713 15.2135 16.7272C15.1336 16.6835 15.0549 16.6372 14.9776 16.5887C11.0029 14.0709 12.7248 7.89191 17.4907 7.84379ZM23.0422 27.1375H11.9388C11.8243 27.1372 11.7098 27.1313 11.5957 27.12C11.482 27.1084 11.3686 27.0916 11.2563 27.069C11.144 27.0464 11.0332 27.0183 10.9234 26.9851C10.814 26.9516 10.7061 26.913 10.6004 26.8688C10.4947 26.8251 10.3911 26.7759 10.2901 26.7219C10.1892 26.6676 10.0911 26.6089 9.99592 26.5451C9.90077 26.4813 9.80889 26.4131 9.7203 26.3402C9.63207 26.2676 9.54712 26.1907 9.46618 26.1094C9.38525 26.0285 9.30832 25.9435 9.23577 25.8549C9.16322 25.7663 9.09504 25.6745 9.0316 25.5793C8.9678 25.4838 8.9091 25.3857 8.85514 25.2847C8.80118 25.1837 8.75233 25.0802 8.70822 24.9741C8.66447 24.8684 8.62582 24.7608 8.59264 24.6511C8.55947 24.5413 8.53176 24.4305 8.50915 24.3182C8.48691 24.2056 8.47014 24.0925 8.45884 23.9784C8.44754 23.8643 8.44171 23.7502 8.44171 23.6357C8.44171 20.6691 10.6267 18.1079 13.7621 16.9551C13.8911 17.0645 14.0246 17.1676 14.1627 17.265C14.3009 17.3623 14.4427 17.4535 14.5889 17.5384C14.7351 17.6234 14.8846 17.7018 15.0377 17.7736C15.1905 17.8454 15.3465 17.9107 15.5051 17.9686C15.6637 18.0266 15.8249 18.0776 15.9879 18.1218C16.1512 18.1659 16.316 18.2027 16.4822 18.2322C16.6488 18.2614 16.8162 18.2836 16.9846 18.2986C17.1527 18.3135 17.3215 18.3208 17.4907 18.3208C17.6595 18.3208 17.8283 18.3135 17.9967 18.2986C18.1648 18.2836 18.3325 18.2614 18.4987 18.2322C18.665 18.2027 18.8298 18.1659 18.9931 18.1218C19.1564 18.0776 19.3172 18.0266 19.4758 17.9686C19.6348 17.9107 19.7905 17.8454 19.9436 17.7736C20.0963 17.7018 20.2458 17.6234 20.392 17.5384C20.5382 17.4535 20.6804 17.3623 20.8182 17.265C20.9564 17.1676 21.0902 17.0645 21.2189 16.9551C24.3543 18.1079 26.5393 20.6691 26.5393 23.6357C26.5393 23.7502 26.5334 23.8643 26.5221 23.9784C26.5112 24.0925 26.494 24.2056 26.4718 24.3182C26.4496 24.4305 26.4215 24.5413 26.3883 24.6511C26.3551 24.7608 26.3165 24.8684 26.2727 24.9741C26.229 25.0802 26.1801 25.1837 26.1258 25.2847C26.0719 25.3857 26.0132 25.4838 25.9497 25.5793C25.8859 25.6745 25.8177 25.7663 25.7452 25.8549C25.6726 25.9435 25.5957 26.0285 25.5148 26.1094C25.4338 26.1907 25.3493 26.2676 25.2607 26.3402C25.1721 26.4131 25.0802 26.4813 24.985 26.5451C24.8899 26.6089 24.7918 26.6676 24.6908 26.7219C24.5898 26.7759 24.4863 26.8251 24.3806 26.8688C24.2748 26.913 24.1673 26.9516 24.0575 26.9851C23.9478 27.0183 23.837 27.0464 23.7247 27.069C23.6124 27.0916 23.499 27.1084 23.3852 27.12C23.2711 27.1313 23.157 27.1372 23.0422 27.1375Z" fill="#6E1E78"/>
</g>
</g>
</g>
<defs>
<clipPath id="clip0_328_55">
<rect width="35" height="35" fill="white"/>
</clipPath>
</defs>
</svg>
